<svg version="1.1" xmlns="http://www.w3.org/2000/svg" viewBox="0 0 569.75 572" width="569.75" height="572">
  <!-- svg-source:excalidraw -->
  
  <defs>
    <style>
      @font-face {
        font-family: "Virgil";
        src: url("https://excalidraw.com/Virgil.woff2");
      }
      @font-face {
        font-family: "Cascadia";
        src: url("https://excalidraw.com/Cascadia.woff2");
      }
    </style>
  </defs>
  <rect x="0" y="0" width="569.75" height="572" fill="#ffffff"></rect><g stroke-linecap="round" transform="translate(26.25 42) rotate(0 29.5 24)"><path d="M1.55 -0.45 C17.33 0.19, 31.29 0.75, 59.73 0.23 M-0.71 -0.26 C23.18 -0.47, 46.76 0.61, 58.81 0.73 M60.32 1.27 C58.17 11.01, 57.58 22.39, 57.97 46.08 M58.72 -0.18 C58.08 17.1, 58.31 35.47, 59.37 48.11 M58.46 46.46 C36.31 46.36, 18.5 48.47, -1.31 48.24 M59.85 47.72 C41.93 48.03, 22.62 48.74, 0.44 47.84 M1.09 49.83 C0.47 34.69, -1.58 19.65, 1.98 0.46 M0.69 48.63 C0.4 35, 0.42 22.25, -0.02 -0.09" stroke="#000000" stroke-width="1" fill="none"></path></g><g stroke-linecap="round" transform="translate(142.75 42) rotate(0 29.5 24)"><path d="M1.29 -0.91 C20.96 -0.95, 40.06 -1.08, 59.22 -0.25 M-0.93 -0.14 C22.67 0.96, 44.78 0.96, 59 0.09 M60.41 -0.81 C56.95 10.86, 60.08 24.22, 57.65 47.21 M58.45 -0.58 C57.86 17.33, 57.78 35.97, 59.73 47.91 M59.26 49.61 C49.17 48.52, 34.26 48.78, -0.07 48.78 M59.29 48.34 C37.82 48.13, 17.65 48.94, -0.21 47.79 M-1.1 46.32 C0.22 32.11, -1.17 11.02, -0.72 1.29 M0.07 47.96 C-0.87 29.09, 0.55 11.08, -0.48 0.5" stroke="#000000" stroke-width="1" fill="none"></path></g><g stroke-linecap="round" transform="translate(254.75 40) rotate(0 29.5 24)"><path d="M-1.35 -0.54 C12.64 -1.63, 25.84 -2.45, 57.22 -1.33 M0.9 -0.13 C22.12 1.4, 44.96 0.89, 58.43 0.43 M57.02 1.47 C59.77 14.91, 59.04 27.87, 60.72 49.02 M59.9 -0.56 C58.35 12.55, 59.23 27.72, 58.63 47.3 M60.84 49.38 C43.56 48.4, 26.98 47.17, 1.99 47.22 M59.76 48.77 C43.2 47.94, 29.25 48.34, 0.91 47.16 M-0.76 48.36 C-1.01 31.13, -1.93 18.65, -0.56 -0.39 M-0.59 48.57 C-1.08 36.61, -0.26 23.6, 0.89 -0.96" stroke="#000000" stroke-width="1" fill="none"></path></g><g stroke-linecap="round" transform="translate(144.75 142) rotate(0 29.5 24)"><path d="M-1.98 1.47 C18.08 0.33, 34.85 -0.94, 60.72 1.02 M0.9 -0.56 C15.9 -1.25, 33.23 0.54, 58.63 -0.7 M60.84 1.38 C59.45 12.6, 58.45 24.05, 60.99 47.22 M59.76 0.77 C58.29 11.76, 59.19 24.24, 59.91 47.16 M58.24 48.36 C38.85 46.68, 18.84 49.73, -0.56 47.61 M58.41 48.57 C43.46 48.92, 29.39 48.02, 0.89 47.04 M-1.68 46.26 C1.35 36.74, -0.65 29.08, -0.33 0.05 M-0.51 48.24 C-0.56 37.61, 0.43 28.51, 0.27 -0.25" stroke="#000000" stroke-width="1" fill="none"></path></g><g stroke-linecap="round" transform="translate(267.75 179) rotate(0 29.5 24)"><path d="M0.13 -0.07 C21.59 -1.71, 46.89 -1.19, 58.03 1 M-0.95 -0.33 C20.29 -0.38, 41.6 -1.3, 59.24 -0.1 M57.94 -1.33 C56.84 16.24, 58.26 28.66, 58.05 49.75 M58.35 0.72 C58.88 15.82, 59.61 31.03, 58.06 48.16 M60.42 46.63 C36.82 48.34, 15.46 47.54, -1.92 49.98 M58.91 47.41 C41.46 48.25, 22.39 47.89, 1 48.23 M-0.24 47.5 C-2.14 32.13, -2.06 17.75, 0.55 0.63 M-0.34 47.9 C0.69 35.52, -1.19 23.4, -0.33 -0.92" stroke="#000000" stroke-width="1" fill="none"></path></g><g stroke-linecap="round" transform="translate(382.75 176) rotate(0 29.5 24)"><path d="M-0.56 -0.39 C12.82 1.25, 28.21 -1.68, 60.15 -1.31 M0.89 -0.96 C21.02 0.26, 44.58 -0.73, 58.13 0.71 M58.67 0.05 C56.95 13.09, 59.11 21.18, 59.47 47.82 M59.27 -0.25 C60.43 11.8, 59.61 23.6, 58.01 47.88 M57.16 48.25 C43.33 48.45, 25.73 48.73, -1.67 47.32 M58.03 48.25 C41.55 47.05, 24 47.55, -0.07 48.27 M-1.07 46.08 C1.2 37.08, -0.63 24.39, -1.68 -0.03 M-0.43 48.92 C-0.35 30.1, 0.95 11.02, 0.87 0.77" stroke="#000000" stroke-width="1" fill="none"></path></g><g stroke-linecap="round" transform="translate(367.75 39) rotate(0 29.5 24)"><path d="M1.32 -1.68 C10.29 1.33, 22.67 -0.67, 59.85 -0.33 M0.13 -0.51 C18.08 -0.67, 35.1 0.32, 59.11 0.27 M59.36 0.91 C57.5 12.98, 58.98 24.52, 58.38 46.16 M58.59 0.46 C58.3 14.66, 59.04 30.91, 58.95 47.03 M57.49 47.16 C39.72 48.01, 19.96 48.66, 1.84 46.93 M58.83 48.83 C46.13 48.49, 35.71 48.39, -0.24 47.57 M1.79 46.33 C1.93 30.72, 0.69 9.6, -1.73 -0.72 M-0.37 47.28 C-0.56 34.85, -0.98 19.47, 0.78 0.88" stroke="#000000" stroke-width="1" fill="none"></path></g><g stroke-linecap="round" transform="translate(500.75 178) rotate(0 29.5 24)"><path d="M1.8 0.23 C19.63 -0.14, 40.17 0.81, 59.36 0.91 M-0.96 -0.31 C10.93 0.27, 23.98 0.46, 58.59 0.46 M60.82 -0.11 C56.9 10.9, 58.18 18.97, 57.49 47.16 M59.6 0.92 C58.6 13.13, 59.87 29.03, 58.83 48.83 M58.76 47.52 C45.39 50.29, 32.67 48.8, 1.79 46.33 M58.61 47.13 C35.83 48.08, 13.99 47.48, -0.37 47.28 M-0.75 49.57 C1.31 34.89, -1.8 23.46, 1.36 1.4 M-0.78 47.28 C0.63 30.39, -0.54 12.37, 0.83 0.81" stroke="#000000" stroke-width="1" fill="none"></path></g><g stroke-linecap="round"><g transform="translate(93.25 64) rotate(0 17.701574966581518 0.41521185743621913)"><path d="M0.17 -0.39 C6.42 0.04, 30.33 2.05, 36.6 2.47 M-1.2 -1.64 C4.93 -1.57, 29 -0.27, 35.45 0.6" stroke="#000000" stroke-width="1" fill="none"></path></g></g><g stroke-linecap="round"><g transform="translate(207.25 62) rotate(0 18.37657366979863 1.279238103702653)"><path d="M-0.94 -0.94 C4.87 -0.38, 29.2 2.77, 35.33 3.49 M0.77 1.19 C6.93 1.37, 31.98 1.61, 37.69 1.63" stroke="#000000" stroke-width="1" fill="none"></path></g></g><g stroke-linecap="round"><g transform="translate(320.25 63) rotate(0 17.417103129364534 0.1137693675693896)"><path d="M0.1 -0.88 C6 -1.25, 30.08 -0.97, 36.15 -1 M-1.31 1.27 C4.39 1.52, 29.06 0.27, 35.28 0.02" stroke="#000000" stroke-width="1" fill="none"></path></g></g><g stroke-linecap="round"><g transform="translate(91.25 94) rotate(0 23.43118545524777 31.43863079350443)"><path d="M-0.82 1.17 C7.28 11.58, 39.56 51.99, 47.68 62.13 M0.96 0.75 C8.95 10.86, 38.88 50.69, 46.56 60.6" stroke="#000000" stroke-width="1" fill="none"></path></g></g><g stroke-linecap="round"><g transform="translate(334.25 195) rotate(0 18.56495826825494 0.9405669368803729)"><path d="M0.58 0.72 C6.64 0.93, 29.5 0.5, 35.34 0.54 M-0.58 0.05 C5.96 0.49, 31.84 1.47, 37.71 1.83" stroke="#000000" stroke-width="1" fill="none"></path></g></g><g stroke-linecap="round"><g transform="translate(450.25 195) rotate(0 21.599120496585954 1.1322754298429913)"><path d="M-0.94 -0.34 C6.52 0.13, 36.98 3.1, 44.14 3.84 M0.76 -1.57 C8.22 -1.51, 36.52 1.51, 43.79 2.15" stroke="#000000" stroke-width="1" fill="none"></path></g></g><g transform="translate(143.25 194) rotate(0 31.5 12.5)"><text x="0" y="18" font-family="Virgil, Segoe UI Emoji" font-size="20px" fill="#000000" text-anchor="start" style="white-space: pre;" direction="ltr">anchor</text></g><g transform="translate(23.25 13) rotate(0 43.5 12.5)"><text x="0" y="18" font-family="Virgil, Segoe UI Emoji" font-size="20px" fill="#000000" text-anchor="start" style="white-space: pre;" direction="ltr">ancestor</text></g><g transform="translate(357.25 10) rotate(0 42 12.5)"><text x="0" y="18" font-family="Virgil, Segoe UI Emoji" font-size="20px" fill="#000000" text-anchor="start" style="white-space: pre;" direction="ltr">old head</text></g><g transform="translate(268.25 233) rotate(0 28 12.5)"><text x="0" y="18" font-family="Virgil, Segoe UI Emoji" font-size="20px" fill="#000000" text-anchor="start" style="white-space: pre;" direction="ltr">start</text></g><g transform="translate(515.25 232) rotate(0 16.5 12.5)"><text x="0" y="18" font-family="Virgil, Segoe UI Emoji" font-size="20px" fill="#000000" text-anchor="start" style="white-space: pre;" direction="ltr">end</text></g><g stroke-linecap="round" transform="translate(13 384) rotate(0 29.5 24)"><path d="M1.33 -0.92 C18.69 0.92, 35.42 2.1, 60.36 -1.87 M0.45 -0.96 C20.04 0.24, 37.97 1.05, 59.07 0.03 M58.28 -0.84 C57.49 9.96, 58.53 18.56, 59.07 48.16 M59.55 -0.01 C59.35 12.03, 58.49 25.13, 59.49 47.07 M59.12 49.78 C38.99 46.16, 21.02 48.99, 1.55 49.27 M58.01 47.77 C45.4 46.78, 32.17 48.4, -0.18 47.51 M0.78 48.19 C-1.02 29.89, 1.03 16.5, 0.05 -1.15 M-0.41 48.04 C0.3 32.44, -1 19.63, 0.97 0.36" stroke="#000000" stroke-width="1" fill="none"></path></g><g stroke-linecap="round" transform="translate(129.5 384) rotate(0 29.5 24)"><path d="M-0.92 1.72 C20.92 1.08, 42.29 0.97, 57.13 0.57 M-0.96 0.65 C14.25 -1.07, 29.13 -0.2, 59.03 -1 M58.16 -1.17 C59.09 10.85, 58.07 22.02, 59.16 47.18 M58.99 0.35 C58.63 13.9, 59.3 29.31, 58.07 48.29 M60.78 47.39 C38.1 48.87, 21.4 49.58, 1.27 46.43 M58.77 47.46 C41.72 46.72, 27.05 47.23, -0.49 48.36 M0.19 47.25 C-2.12 32.13, 0.64 13.7, -1.15 0.09 M0.04 48.39 C-0.59 31.81, 1.21 18.4, 0.36 0" stroke="#000000" stroke-width="1" fill="none"></path></g><g stroke-linecap="round" transform="translate(241.5 382) rotate(0 29.5 24)"><path d="M1.72 0.72 C17.19 2.17, 32.8 -1.59, 59.57 -1.23 M0.65 0.17 C16.16 1.54, 34 0.59, 58 -0.71 M57.83 0.35 C58.7 11.14, 58.9 23.77, 58.18 48 M59.35 -0.39 C58.75 14.93, 59.75 28.38, 59.29 48.31 M58.39 46.63 C46.82 49.98, 34.53 49.8, -1.57 47.52 M58.46 47.01 C42.91 48.5, 28.05 47.37, 0.36 48.58 M-0.75 46.04 C1.12 32.81, -0.13 14.89, 0.09 0.37 M0.39 47.06 C-0.71 37.99, 1.16 26.63, 0 0.42" stroke="#000000" stroke-width="1" fill="none"></path></g><g stroke-linecap="round" transform="translate(131.5 484) rotate(0 29.5 24)"><path d="M0.72 1.48 C23.51 0.86, 41.36 0.06, 57.77 -0.25 M0.17 -0.8 C21.34 -0.32, 40.76 -1.38, 58.29 -0.54 M59.35 -0.12 C58.13 12.73, 58.96 24.5, 59 48.1 M58.61 -0.52 C59.27 17.54, 58.07 34.39, 59.31 47.2 M57.63 48.83 C42.4 49.37, 24.15 46.25, -0.48 47.22 M58.01 47.3 C47.76 47.5, 34.76 48.05, 0.58 48.33 M-1.96 49.3 C0.75 31.79, -1.19 15.56, 0.37 -1.47 M-0.94 47.09 C0.83 36.52, 0.34 23.1, 0.42 -0.13" stroke="#000000" stroke-width="1" fill="none"></path></g><g stroke-linecap="round" transform="translate(242.5 483) rotate(0 29.5 24)"><path d="M1.48 1.9 C16.35 -2.08, 30.55 -1.44, 58.75 0.9 M-0.8 0.97 C12.11 -0.07, 23.09 -0.81, 58.46 -0.36 M58.88 -0.67 C58.79 12.56, 57.9 24.8, 59.1 49.1 M58.48 0.27 C59.65 13.43, 59.46 29.02, 58.2 48.06 M59.83 49.46 C37.6 48.87, 11.53 47.12, -0.78 46.03 M58.3 48.63 C42.47 46.92, 26.67 47.99, 0.33 48.39 M1.3 48.79 C0.23 31.99, 0.27 18.64, -1.47 -0.81 M-0.91 48.85 C0.78 33.76, -0.19 19.24, -0.13 0.36" stroke="#000000" stroke-width="1" fill="none"></path></g><g stroke-linecap="round" transform="translate(357.5 480) rotate(0 29.5 24)"><path d="M1.9 1.36 C20.92 0.14, 44.34 -0.68, 59.9 -1.92 M0.97 0.07 C21.58 -0.52, 42.4 -0.07, 58.64 -0.42 M58.33 0.07 C59.24 10.77, 59.09 23.3, 60.1 47.98 M59.27 0.49 C57.88 16.37, 59.12 31.36, 59.06 48.89 M60.46 49.55 C44.36 46.67, 26.7 47.46, -1.97 47.54 M59.63 47.82 C43.99 47.95, 30.54 47.92, 0.39 48.1 M0.79 48.05 C-0.68 35.48, 0.84 21.31, -0.81 0.08 M0.85 48.97 C0.81 31.73, 0.88 15.33, 0.36 -0.08" stroke="#000000" stroke-width="1" fill="none"></path></g><g stroke-linecap="round" transform="translate(354.5 381) rotate(0 29.5 24)"><path d="M1.36 -1.87 C20.4 -1.79, 39.41 0.34, 57.08 1.31 M0.07 0.03 C17.7 -1.29, 36.86 -0.94, 58.58 -0.58 M59.07 0.16 C58.15 15.25, 59.07 31.59, 58.98 48.7 M59.49 -0.93 C59.04 12.82, 57.96 25.08, 59.89 47.7 M60.55 49.27 C43.78 47.95, 30.92 46.46, -0.46 46.92 M58.82 47.51 C47.53 48.95, 35.65 48.76, 0.1 47.63 M0.05 46.85 C-0.22 38.67, -1.79 27.78, 0.08 0.78 M0.97 48.36 C0.44 38.55, 0.31 28.62, -0.08 -0.56" stroke="#000000" stroke-width="1" fill="none"></path></g><g stroke-linecap="round" transform="translate(475.5 482) rotate(0 29.5 24)"><path d="M-1.87 0.57 C20.83 -0.65, 45.01 -2.32, 60.31 0.34 M0.03 -1 C12.25 -0.58, 25.57 -0.46, 58.42 0.18 M59.16 -0.82 C58.84 14.21, 59.94 28.18, 59.7 47.21 M58.07 0.29 C59.44 11.13, 59.19 24.74, 58.7 47.31 M60.27 46.43 C38.37 47.67, 16.72 48, -1.08 46.01 M58.51 48.36 C46.02 48.22, 32.26 47.99, -0.37 47.02 M-1.15 48.09 C0.18 29, -1 13.02, 0.78 -1.89 M0.36 48 C0.02 37.83, -0.05 27.84, -0.56 0.09" stroke="#000000" stroke-width="1" fill="none"></path></g><g stroke-linecap="round"><g transform="translate(80 406) rotate(0 18.735089931525295 1.3932674942910523)"><path d="M-1.12 0.34 C4.74 0.51, 29.82 1.77, 36.26 1.85 M0.49 -0.52 C6.64 -0.23, 32.49 2.96, 38.59 3.31" stroke="#000000" stroke-width="1" fill="none"></path></g></g><g stroke-linecap="round"><g transform="translate(194 406) rotate(0 17.45704288196748 1.4030090522020942)"><path d="M0.34 -0.74 C6.18 0.04, 30.1 2.79, 35.85 3.54 M-0.94 1.49 C4.66 2.01, 28.48 1.64, 34.82 1.7" stroke="#000000" stroke-width="1" fill="none"></path></g></g><g stroke-linecap="round"><g transform="translate(307 405) rotate(0 17.90300905220215 -0.7246237801363975)"><path d="M-0.74 -0.15 C5.54 -0.4, 30.29 -1.21, 36.54 -1.15 M1.08 -1.27 C7.34 -1.45, 29.99 -0.7, 35.88 -0.22" stroke="#000000" stroke-width="1" fill="none"></path></g></g><g stroke-linecap="round"><g transform="translate(78 436) rotate(0 23.63509514646603 30.783073281226677)"><path d="M-0.15 0.54 C7.6 10.96, 38.79 51.87, 46.85 61.78 M-1.69 -0.22 C6.39 9.93, 40.75 49.9, 48.96 60.07" stroke="#000000" stroke-width="1" fill="none"></path></g></g><g stroke-linecap="round"><g transform="translate(309 500) rotate(0 18.076305889226546 0.026397024467541996)"><path d="M0.54 -1.15 C6.8 -0.93, 31.04 0.65, 36.78 1.2 M-0.63 0.86 C5.6 0.71, 29.91 -0.74, 36.25 -0.81" stroke="#000000" stroke-width="1" fill="none"></path></g></g><g stroke-linecap="round"><g transform="translate(425 500) rotate(0 21.026397024467542 1.6098319671861532)"><path d="M-1.15 0.78 C6.07 1.03, 35.65 1.65, 43.2 2.04 M0.45 0.15 C7.54 0.47, 35.1 2.35, 42.36 3.07" stroke="#000000" stroke-width="1" fill="none"></path></g></g><g transform="translate(130 536) rotate(0 31.5 12.5)"><text x="0" y="18" font-family="Virgil, Segoe UI Emoji" font-size="20px" fill="#000000" text-anchor="start" style="white-space: pre;" direction="ltr">anchor</text></g><g transform="translate(10 355) rotate(0 43.5 12.5)"><text x="0" y="18" font-family="Virgil, Segoe UI Emoji" font-size="20px" fill="#000000" text-anchor="start" style="white-space: pre;" direction="ltr">ancestor</text></g><g transform="translate(344 352) rotate(0 42 12.5)"><text x="0" y="18" font-family="Virgil, Segoe UI Emoji" font-size="20px" fill="#000000" text-anchor="start" style="white-space: pre;" direction="ltr">old head</text></g><g transform="translate(243 537) rotate(0 28 12.5)"><text x="0" y="18" font-family="Virgil, Segoe UI Emoji" font-size="20px" fill="#000000" text-anchor="start" style="white-space: pre;" direction="ltr">start</text></g><g transform="translate(490 536) rotate(0 16.5 12.5)"><text x="0" y="18" font-family="Virgil, Segoe UI Emoji" font-size="20px" fill="#000000" text-anchor="start" style="white-space: pre;" direction="ltr">end</text></g><g stroke-linecap="round"><g transform="translate(193.25 507) rotate(0 19.964766727760434 -1.2452842760831118)"><path d="M-0.93 -0.24 C5.95 -0.76, 33.75 -2.09, 40.86 -2.25 M0.78 -1.41 C7.52 -1.82, 33.08 -0.55, 39.84 -0.85" stroke="#000000" stroke-width="4" fill="none"></path></g></g><g transform="translate(461.25 449) rotate(0 44.5 12.5)"><text x="0" y="18" font-family="Virgil, Segoe UI Emoji" font-size="20px" fill="#000000" text-anchor="start" style="white-space: pre;" direction="ltr">new head</text></g><g stroke-linecap="round"><g transform="translate(247.25 274) rotate(0 0.6140356369037363 43.116750014154235)"><path d="M0.35 -0.68 C0.73 13.53, 1.84 71.27, 2.16 85.94 M-0.93 1.57 C-0.68 15.84, 0.86 72.38, 1.29 86.92" stroke="#000000" stroke-width="1" fill="none"></path></g><g transform="translate(247.25 274) rotate(0 0.6140356369037363 43.116750014154235)"><path d="M-10.9 59.29 C-8.18 67.53, -2.67 73.52, 0.07 86.82 M-9.36 59.9 C-5.47 70.34, -0.96 80.2, 0.4 87.9" stroke="#000000" stroke-width="1" fill="none"></path></g><g transform="translate(247.25 274) rotate(0 0.6140356369037363 43.116750014154235)"><path d="M9.62 58.71 C6.4 67.18, 5.98 73.34, 0.07 86.82 M11.16 59.32 C7.4 69.84, 4.26 79.91, 0.4 87.9" stroke="#000000" stroke-width="1" fill="none"></path></g></g></svg>